<?xml version="1.0" standalone="no"?>
<!DOCTYPE svg PUBLIC "-//W3C//DTD SVG 1.1//EN"
  "http://www.w3.org/Graphics/SVG/1.1/DTD/svg11.dtd">
<svg xmlns="http://www.w3.org/2000/svg" version="1.1"
     width="874px" height="485px" viewBox="-15 -260 874 495">
  <defs>
    <style type="text/css"><![CDATA[
      .markmap-node {
        cursor: pointer;
      }

      .markmap-node-circle {
        fill: #fff;
        stroke-width: 1.5px;
      }

      .markmap-node-text {
        fill:  #000;
        font: 10px sans-serif;
      }

      .markmap-link {
        fill: none;
      }
    ]]></style>
  </defs>
  <g><path class="markmap-link" stroke="#1f77b4" stroke-width="1.5" d="M542.330322265625,190C572.330322265625,190 572.330322265625,190 602.330322265625,190"></path><path class="markmap-link" stroke="#1f77b4" stroke-width="1.5" d="M583.2998352050781,170C613.2998352050781,170 613.2998352050781,170 643.2998352050781,170"></path><path class="markmap-link" stroke="#1f77b4" stroke-width="1.5" d="M377.31219482421875,177.5C407.31219482421875,177.5 407.31219482421875,135 437.31219482421875,135"></path><path class="markmap-link" stroke="#1f77b4" stroke-width="1.5" d="M377.31219482421875,177.5C407.31219482421875,177.5 407.31219482421875,150 437.31219482421875,150"></path><path class="markmap-link" stroke="#1f77b4" stroke-width="1.5" d="M377.31219482421875,177.5C407.31219482421875,177.5 407.31219482421875,170 437.31219482421875,170"></path><path class="markmap-link" stroke="#1f77b4" stroke-width="1.5" d="M377.31219482421875,177.5C407.31219482421875,177.5 407.31219482421875,190 437.31219482421875,190"></path><path class="markmap-link" stroke="#1f77b4" stroke-width="1.5" d="M377.31219482421875,177.5C407.31219482421875,177.5 407.31219482421875,205 437.31219482421875,205"></path><path class="markmap-link" stroke="#1f77b4" stroke-width="1.5" d="M377.31219482421875,177.5C407.31219482421875,177.5 407.31219482421875,220 437.31219482421875,220"></path><path class="markmap-link" stroke="#aec7e8" stroke-width="1.5" d="M562.9220581054688,115C592.9220581054688,115 592.9220581054688,115 622.9220581054688,115"></path><path class="markmap-link" stroke="#aec7e8" stroke-width="1.5" d="M502.20391845703125,95C532.2039184570312,95 532.2039184570312,95 562.2039184570312,95"></path><path class="markmap-link" stroke="#aec7e8" stroke-width="1.5" d="M576.9605102539062,60C606.9605102539062,60 606.9605102539062,60 636.9605102539062,60"></path><path class="markmap-link" stroke="#aec7e8" stroke-width="1.5" d="M324.2508544921875,80C354.2508544921875,80 354.2508544921875,45 384.2508544921875,45"></path><path class="markmap-link" stroke="#aec7e8" stroke-width="1.5" d="M324.2508544921875,80C354.2508544921875,80 354.2508544921875,60 384.2508544921875,60"></path><path class="markmap-link" stroke="#aec7e8" stroke-width="1.5" d="M324.2508544921875,80C354.2508544921875,80 354.2508544921875,75 384.2508544921875,75"></path><path class="markmap-link" stroke="#aec7e8" stroke-width="1.5" d="M324.2508544921875,80C354.2508544921875,80 354.2508544921875,95 384.2508544921875,95"></path><path class="markmap-link" stroke="#aec7e8" stroke-width="1.5" d="M324.2508544921875,80C354.2508544921875,80 354.2508544921875,115 384.2508544921875,115"></path><path class="markmap-link" stroke="#ff7f0e" stroke-width="1.5" d="M596.1051025390625,25C626.1051025390625,25 626.1051025390625,25 656.1051025390625,25"></path><path class="markmap-link" stroke="#ff7f0e" stroke-width="1.5" d="M583.184814453125,5C613.184814453125,5 613.184814453125,5 643.184814453125,5"></path><path class="markmap-link" stroke="#ff7f0e" stroke-width="1.5" d="M557.2478637695312,-15C587.2478637695312,-15 587.2478637695312,-15 617.2478637695312,-15"></path><path class="markmap-link" stroke="#ff7f0e" stroke-width="1.5" d="M366.2748718261719,-2.5C396.2748718261719,-2.5 396.2748718261719,-30 426.2748718261719,-30"></path><path class="markmap-link" stroke="#ff7f0e" stroke-width="1.5" d="M366.2748718261719,-2.5C396.2748718261719,-2.5 396.2748718261719,-15 426.2748718261719,-15"></path><path class="markmap-link" stroke="#ff7f0e" stroke-width="1.5" d="M366.2748718261719,-2.5C396.2748718261719,-2.5 396.2748718261719,5 426.2748718261719,5"></path><path class="markmap-link" stroke="#ff7f0e" stroke-width="1.5" d="M366.2748718261719,-2.5C396.2748718261719,-2.5 396.2748718261719,25 426.2748718261719,25"></path><path class="markmap-link" stroke="#ffbb78" stroke-width="1.5" d="M557.5923767089844,-50C587.5923767089844,-50 587.5923767089844,-50 617.5923767089844,-50"></path><path class="markmap-link" stroke="#ffbb78" stroke-width="1.5" d="M607.3654174804688,-70C637.3654174804688,-70 637.3654174804688,-70 667.3654174804688,-70"></path><path class="markmap-link" stroke="#ffbb78" stroke-width="1.5" d="M417.0176086425781,-75C447.0176086425781,-75 447.0176086425781,-100 477.0176086425781,-100"></path><path class="markmap-link" stroke="#ffbb78" stroke-width="1.5" d="M417.0176086425781,-75C447.0176086425781,-75 447.0176086425781,-85 477.0176086425781,-85"></path><path class="markmap-link" stroke="#ffbb78" stroke-width="1.5" d="M417.0176086425781,-75C447.0176086425781,-75 447.0176086425781,-70 477.0176086425781,-70"></path><path class="markmap-link" stroke="#ffbb78" stroke-width="1.5" d="M417.0176086425781,-75C447.0176086425781,-75 447.0176086425781,-50 477.0176086425781,-50"></path><path class="markmap-link" stroke="#2ca02c" stroke-width="1.5" d="M501.1315002441406,-120C531.1315002441406,-120 531.1315002441406,-120 561.1315002441406,-120"></path><path class="markmap-link" stroke="#2ca02c" stroke-width="1.5" d="M482.2496643066406,-140C512.2496643066406,-140 512.2496643066406,-140 542.2496643066406,-140"></path><path class="markmap-link" stroke="#2ca02c" stroke-width="1.5" d="M480.0084533691406,-160C510.0084533691406,-160 510.0084533691406,-160 540.0084533691406,-160"></path><path class="markmap-link" stroke="#2ca02c" stroke-width="1.5" d="M559.5789489746094,-200C589.5789489746094,-200 589.5789489746094,-200 619.5789489746094,-200"></path><path class="markmap-link" stroke="#2ca02c" stroke-width="1.5" d="M530.4898681640625,-220C560.4898681640625,-220 560.4898681640625,-220 590.4898681640625,-220"></path><path class="markmap-link" stroke="#2ca02c" stroke-width="1.5" d="M345.1371765136719,-177.5C375.1371765136719,-177.5 375.1371765136719,-235 405.1371765136719,-235"></path><path class="markmap-link" stroke="#2ca02c" stroke-width="1.5" d="M345.1371765136719,-177.5C375.1371765136719,-177.5 375.1371765136719,-220 405.1371765136719,-220"></path><path class="markmap-link" stroke="#2ca02c" stroke-width="1.5" d="M345.1371765136719,-177.5C375.1371765136719,-177.5 375.1371765136719,-200 405.1371765136719,-200"></path><path class="markmap-link" stroke="#2ca02c" stroke-width="1.5" d="M345.1371765136719,-177.5C375.1371765136719,-177.5 375.1371765136719,-180 405.1371765136719,-180"></path><path class="markmap-link" stroke="#2ca02c" stroke-width="1.5" d="M345.1371765136719,-177.5C375.1371765136719,-177.5 375.1371765136719,-160 405.1371765136719,-160"></path><path class="markmap-link" stroke="#2ca02c" stroke-width="1.5" d="M345.1371765136719,-177.5C375.1371765136719,-177.5 375.1371765136719,-140 405.1371765136719,-140"></path><path class="markmap-link" stroke="#2ca02c" stroke-width="1.5" d="M345.1371765136719,-177.5C375.1371765136719,-177.5 375.1371765136719,-120 405.1371765136719,-120"></path><path class="markmap-link" stroke="#2ca02c" stroke-width="2" d="M83.978271484375,0C113.978271484375,0 113.978271484375,-177.5 143.978271484375,-177.5"></path><path class="markmap-link" stroke="#ffbb78" stroke-width="2" d="M83.978271484375,0C113.978271484375,0 113.978271484375,-75 143.978271484375,-75"></path><path class="markmap-link" stroke="#ff7f0e" stroke-width="2" d="M83.978271484375,0C113.978271484375,0 113.978271484375,-2.5 143.978271484375,-2.5"></path><path class="markmap-link" stroke="#aec7e8" stroke-width="2" d="M83.978271484375,0C113.978271484375,0 113.978271484375,80 143.978271484375,80"></path><path class="markmap-link" stroke="#1f77b4" stroke-width="2" d="M83.978271484375,0C113.978271484375,0 113.978271484375,177.5 143.978271484375,177.5"></path><g class="markmap-node" transform="translate(437.31219482421875,220)"><rect class="markmap-node-rect" y="-0.75" x="-1" width="130.52615356445312" height="1.5" fill="#1f77b4"></rect><circle class="markmap-node-circle" cx="128.52615356445312" stroke="#1f77b4" r="4.5" style="display: none;"></circle><text class="markmap-node-text" x="10" dy="-5" text-anchor="start" style="fill-opacity: 1;">6. Slim Library의 NNA 모듈</text></g><g class="markmap-node" transform="translate(437.31219482421875,205)"><rect class="markmap-node-rect" y="-0.75" x="-1" width="63.53143310546875" height="1.5" fill="#1f77b4"></rect><circle class="markmap-node-circle" cx="61.53143310546875" stroke="#1f77b4" r="4.5" style="display: none;"></circle><text class="markmap-node-text" x="10" dy="-5" text-anchor="start" style="fill-opacity: 1;">5. NNA소개</text></g><g class="markmap-node" transform="translate(602.330322265625,190)"><rect class="markmap-node-rect" y="-0.75" x="-1" width="101.45660400390625" height="1.5" fill="#1f77b4"></rect><circle class="markmap-node-circle" cx="99.45660400390625" stroke="#1f77b4" r="4.5" style="display: none;"></circle><text class="markmap-node-text" x="10" dy="-5" text-anchor="start" style="fill-opacity: 1;">실습 : CNN 모델 구현</text></g><g class="markmap-node" transform="translate(437.31219482421875,190)"><rect class="markmap-node-rect" y="-0.75" x="-1" width="107.01812744140625" height="1.5" fill="#1f77b4"></rect><circle class="markmap-node-circle" cx="105.01812744140625" stroke="#1f77b4" r="4.5"></circle><text class="markmap-node-text" x="10" dy="-5" text-anchor="start" style="fill-opacity: 1;">4. 기초 CNN 모델 구현</text></g><g class="markmap-node" transform="translate(643.2998657226562,170)"><rect class="markmap-node-rect" y="-0.75" x="-1" width="164.17434692382812" height="1.5" fill="#1f77b4"></rect><circle class="markmap-node-circle" cx="162.17434692382812" stroke="#1f77b4" r="4.5" style="display: none;"></circle><text class="markmap-node-text" x="10" dy="-5" text-anchor="start" style="fill-opacity: 1;">실습 : OpenCV로 이미지 전처리 하기</text></g><g class="markmap-node" transform="translate(437.31219482421875,170)"><rect class="markmap-node-rect" y="-0.75" x="-1" width="147.98764038085938" height="1.5" fill="#1f77b4"></rect><circle class="markmap-node-circle" cx="145.98764038085938" stroke="#1f77b4" r="4.5"></circle><text class="markmap-node-text" x="10" dy="-5" text-anchor="start" style="fill-opacity: 1;">3. OpenCv로 이미지 전처리 실습</text></g><g class="markmap-node" transform="translate(437.31219482421875,150)"><rect class="markmap-node-rect" y="-0.75" x="-1" width="168.06594848632812" height="1.5" fill="#1f77b4"></rect><circle class="markmap-node-circle" cx="166.06594848632812" stroke="#1f77b4" r="4.5" style="display: none;"></circle><text class="markmap-node-text" x="10" dy="-5" text-anchor="start" style="fill-opacity: 1;">2. OpenCv 개요와 시각인지 분야 설명</text></g><g class="markmap-node" transform="translate(437.31219482421875,135)"><rect class="markmap-node-rect" y="-0.75" x="-1" width="79.79644775390625" height="1.5" fill="#1f77b4"></rect><circle class="markmap-node-circle" cx="77.79644775390625" stroke="#1f77b4" r="4.5" style="display: none;"></circle><text class="markmap-node-text" x="10" dy="-5" text-anchor="start" style="fill-opacity: 1;">1. 시각인지 개요</text></g><g class="markmap-node" transform="translate(143.978271484375,177.5)"><rect class="markmap-node-rect" y="-1" x="-1" width="235.33392333984375" height="2" fill="#1f77b4"></rect><circle class="markmap-node-circle" cx="233.33392333984375" stroke="#1f77b4" r="4.5"></circle><text class="markmap-node-text" x="10" dy="-5" text-anchor="start" style="fill-opacity: 1;">5.CNN통한 이미지 데이터 분석(OpenCv, CNN, NNA)</text></g><g class="markmap-node" transform="translate(622.9220581054688,115)"><rect class="markmap-node-rect" y="-0.75" x="-1" width="171.1397705078125" height="1.5" fill="#aec7e8"></rect><circle class="markmap-node-circle" cx="169.1397705078125" stroke="#aec7e8" r="4.5" style="display: none;"></circle><text class="markmap-node-text" x="10" dy="-5" text-anchor="start" style="fill-opacity: 1;">실습 : Iris 데이터 셋으로 MLP모델 학습</text></g><g class="markmap-node" transform="translate(384.2508544921875,115)"><rect class="markmap-node-rect" y="-0.75" x="-1" width="180.67120361328125" height="1.5" fill="#aec7e8"></rect><circle class="markmap-node-circle" cx="178.67120361328125" stroke="#aec7e8" r="4.5"></circle><text class="markmap-node-text" x="10" dy="-5" text-anchor="start" style="fill-opacity: 1;">5. MLP를 통한 지도학습 딥러닝 모델 구현</text></g><g class="markmap-node" transform="translate(562.2039184570312,95)"><rect class="markmap-node-rect" y="-0.75" x="-1" width="161.9739990234375" height="1.5" fill="#aec7e8"></rect><circle class="markmap-node-circle" cx="159.9739990234375" stroke="#aec7e8" r="4.5" style="display: none;"></circle><text class="markmap-node-text" x="10" dy="-5" text-anchor="start" style="fill-opacity: 1;">실습 : Multi-linear Regression 구현</text></g><g class="markmap-node" transform="translate(384.2508544921875,95)"><rect class="markmap-node-rect" y="-0.75" x="-1" width="119.95306396484375" height="1.5" fill="#aec7e8"></rect><circle class="markmap-node-circle" cx="117.95306396484375" stroke="#aec7e8" r="4.5"></circle><text class="markmap-node-text" x="10" dy="-5" text-anchor="start" style="fill-opacity: 1;">4. 옵티마이저 이해 및 실습</text></g><g class="markmap-node" transform="translate(384.2508544921875,75)"><rect class="markmap-node-rect" y="-0.75" x="-1" width="157.33135986328125" height="1.5" fill="#aec7e8"></rect><circle class="markmap-node-circle" cx="155.33135986328125" stroke="#aec7e8" r="4.5" style="display: none;"></circle><text class="markmap-node-text" x="10" dy="-5" text-anchor="start" style="fill-opacity: 1;">3. 시뮬레이터 통한 딥러닝 과정 이해</text></g><g class="markmap-node" transform="translate(636.9605102539062,60)"><rect class="markmap-node-rect" y="-0.75" x="-1" width="209.2264404296875" height="1.5" fill="#aec7e8"></rect><circle class="markmap-node-circle" cx="207.2264404296875" stroke="#aec7e8" r="4.5" style="display: none;"></circle><text class="markmap-node-text" x="10" dy="-5" text-anchor="start" style="fill-opacity: 1;">실습 : 시뮬레이터 통한 딥러닝 개념과 용어 익히기</text></g><g class="markmap-node" transform="translate(384.2508544921875,60)"><rect class="markmap-node-rect" y="-0.75" x="-1" width="194.70965576171875" height="1.5" fill="#aec7e8"></rect><circle class="markmap-node-circle" cx="192.70965576171875" stroke="#aec7e8" r="4.5"></circle><text class="markmap-node-text" x="10" dy="-5" text-anchor="start" style="fill-opacity: 1;">2. 시뮬레이터 통한 딥러닝 개념과 용어 익히기</text></g><g class="markmap-node" transform="translate(384.2508544921875,45)"><rect class="markmap-node-rect" y="-0.75" x="-1" width="71.14645385742188" height="1.5" fill="#aec7e8"></rect><circle class="markmap-node-circle" cx="69.14645385742188" stroke="#aec7e8" r="4.5" style="display: none;"></circle><text class="markmap-node-text" x="10" dy="-5" text-anchor="start" style="fill-opacity: 1;">1. 딥러닝 개요</text></g><g class="markmap-node" transform="translate(143.978271484375,80)"><rect class="markmap-node-rect" y="-1" x="-1" width="182.2725830078125" height="2" fill="#aec7e8"></rect><circle class="markmap-node-circle" cx="180.2725830078125" stroke="#aec7e8" r="4.5"></circle><text class="markmap-node-text" x="10" dy="-5" text-anchor="start" style="fill-opacity: 1;">4.Tensorflow로 이해하고 실습하는 딥러닝</text></g><g class="markmap-node" transform="translate(656.1051025390625,25)"><rect class="markmap-node-rect" y="-0.75" x="-1" width="98.6243896484375" height="1.5" fill="#ff7f0e"></rect><circle class="markmap-node-circle" cx="96.6243896484375" stroke="#ff7f0e" r="4.5" style="display: none;"></circle><text class="markmap-node-text" x="10" dy="-5" text-anchor="start" style="fill-opacity: 1;">실습 : XGboost 구현</text></g><g class="markmap-node" transform="translate(426.2748718261719,25)"><rect class="markmap-node-rect" y="-0.75" x="-1" width="171.83023071289062" height="1.5" fill="#ff7f0e"></rect><circle class="markmap-node-circle" cx="169.83023071289062" stroke="#ff7f0e" r="4.5"></circle><text class="markmap-node-text" x="10" dy="-5" text-anchor="start" style="fill-opacity: 1;">4. XGboost를 통한 Boosting기법 실습</text></g><g class="markmap-node" transform="translate(643.184814453125,5)"><rect class="markmap-node-rect" y="-0.75" x="-1" width="125.2991943359375" height="1.5" fill="#ff7f0e"></rect><circle class="markmap-node-circle" cx="123.2991943359375" stroke="#ff7f0e" r="4.5" style="display: none;"></circle><text class="markmap-node-text" x="10" dy="-5" text-anchor="start" style="fill-opacity: 1;">실습 : Random forest 구현</text></g><g class="markmap-node" transform="translate(426.2748718261719,5)"><rect class="markmap-node-rect" y="-0.75" x="-1" width="158.90994262695312" height="1.5" fill="#ff7f0e"></rect><circle class="markmap-node-circle" cx="156.90994262695312" stroke="#ff7f0e" r="4.5"></circle><text class="markmap-node-text" x="10" dy="-5" text-anchor="start" style="fill-opacity: 1;">3. Random forest로 Bagging 구현</text></g><g class="markmap-node" transform="translate(617.2478637695312,-15)"><rect class="markmap-node-rect" y="-0.75" x="-1" width="81.3831787109375" height="1.5" fill="#ff7f0e"></rect><circle class="markmap-node-circle" cx="79.3831787109375" stroke="#ff7f0e" r="4.5" style="display: none;"></circle><text class="markmap-node-text" x="10" dy="-5" text-anchor="start" style="fill-opacity: 1;">실습 : SVM 구현</text></g><g class="markmap-node" transform="translate(426.2748718261719,-15)"><rect class="markmap-node-rect" y="-0.75" x="-1" width="132.97299194335938" height="1.5" fill="#ff7f0e"></rect><circle class="markmap-node-circle" cx="130.97299194335938" stroke="#ff7f0e" r="4.5"></circle><text class="markmap-node-text" x="10" dy="-5" text-anchor="start" style="fill-opacity: 1;">2. SVM을 통한 지도학습 실습</text></g><g class="markmap-node" transform="translate(426.2748718261719,-30)"><rect class="markmap-node-rect" y="-0.75" x="-1" width="99.874755859375" height="1.5" fill="#ff7f0e"></rect><circle class="markmap-node-circle" cx="97.874755859375" stroke="#ff7f0e" r="4.5" style="display: none;"></circle><text class="markmap-node-text" x="10" dy="-5" text-anchor="start" style="fill-opacity: 1;">1. 지도학습 모델 소개</text></g><g class="markmap-node" transform="translate(143.978271484375,-2.5)"><rect class="markmap-node-rect" y="-1" x="-1" width="224.29660034179688" height="2" fill="#ff7f0e"></rect><circle class="markmap-node-circle" cx="222.29660034179688" stroke="#ff7f0e" r="4.5"></circle><text class="markmap-node-text" x="10" dy="-5" text-anchor="start" style="fill-opacity: 1;">3.지도학습과 Bagging과 Boosting기법 이해 및 실습</text></g><g class="markmap-node" transform="translate(617.5924072265625,-50)"><rect class="markmap-node-rect" y="-0.75" x="-1" width="77.01324462890625" height="1.5" fill="#ffbb78"></rect><circle class="markmap-node-circle" cx="75.01324462890625" stroke="#ffbb78" r="4.5" style="display: none;"></circle><text class="markmap-node-text" x="10" dy="-5" text-anchor="start" style="fill-opacity: 1;">실습 : 모델 평가</text></g><g class="markmap-node" transform="translate(477.0176086425781,-50)"><rect class="markmap-node-rect" y="-0.75" x="-1" width="82.57476806640625" height="1.5" fill="#ffbb78"></rect><circle class="markmap-node-circle" cx="80.57476806640625" stroke="#ffbb78" r="4.5"></circle><text class="markmap-node-text" x="10" dy="-5" text-anchor="start" style="fill-opacity: 1;">4. 모델 평가 실습</text></g><g class="markmap-node" transform="translate(667.3654174804688,-70)"><rect class="markmap-node-rect" y="-0.75" x="-1" width="119.80621337890625" height="1.5" fill="#ffbb78"></rect><circle class="markmap-node-circle" cx="117.80621337890625" stroke="#ffbb78" r="4.5" style="display: none;"></circle><text class="markmap-node-text" x="10" dy="-5" text-anchor="start" style="fill-opacity: 1;">실습 : K-means 모델 구현</text></g><g class="markmap-node" transform="translate(477.0176086425781,-70)"><rect class="markmap-node-rect" y="-0.75" x="-1" width="132.34780883789062" height="1.5" fill="#ffbb78"></rect><circle class="markmap-node-circle" cx="130.34780883789062" stroke="#ffbb78" r="4.5"></circle><text class="markmap-node-text" x="10" dy="-5" text-anchor="start" style="fill-opacity: 1;">3. k-means 모델 만들기 실습</text></g><g class="markmap-node" transform="translate(477.0176086425781,-85)"><rect class="markmap-node-rect" y="-0.75" x="-1" width="118.52474975585938" height="1.5" fill="#ffbb78"></rect><circle class="markmap-node-circle" cx="116.52474975585938" stroke="#ffbb78" r="4.5" style="display: none;"></circle><text class="markmap-node-text" x="10" dy="-5" text-anchor="start" style="fill-opacity: 1;">2. 비지도학습 vs 지도학습</text></g><g class="markmap-node" transform="translate(477.0176086425781,-100)"><rect class="markmap-node-rect" y="-0.75" x="-1" width="79.79644775390625" height="1.5" fill="#ffbb78"></rect><circle class="markmap-node-circle" cx="77.79644775390625" stroke="#ffbb78" r="4.5" style="display: none;"></circle><text class="markmap-node-text" x="10" dy="-5" text-anchor="start" style="fill-opacity: 1;">1. 기계학습 개요</text></g><g class="markmap-node" transform="translate(143.978271484375,-75)"><rect class="markmap-node-rect" y="-1" x="-1" width="275.0393371582031" height="2" fill="#ffbb78"></rect><circle class="markmap-node-circle" cx="273.0393371582031" stroke="#ffbb78" r="4.5"></circle><text class="markmap-node-text" x="10" dy="-5" text-anchor="start" style="fill-opacity: 1;">2.기계학습 개요와 k-means로 이해하는 비지도학습 방법(Clust…</text></g><g class="markmap-node" transform="translate(561.1314697265625,-120)"><rect class="markmap-node-rect" y="-0.75" x="-1" width="141.23941040039062" height="1.5" fill="#2ca02c"></rect><circle class="markmap-node-circle" cx="139.23941040039062" stroke="#2ca02c" r="4.5" style="display: none;"></circle><text class="markmap-node-text" x="10" dy="-5" text-anchor="start" style="fill-opacity: 1;">실습 : Scikit-Learn 데이터 로딩</text></g><g class="markmap-node" transform="translate(405.1371765136719,-120)"><rect class="markmap-node-rect" y="-0.75" x="-1" width="97.99432373046875" height="1.5" fill="#2ca02c"></rect><circle class="markmap-node-circle" cx="95.99432373046875" stroke="#2ca02c" r="4.5"></circle><text class="markmap-node-text" x="10" dy="-5" text-anchor="start" style="fill-opacity: 1;">7. Scikit-Learn 실습</text></g><g class="markmap-node" transform="translate(542.2496337890625,-140)"><rect class="markmap-node-rect" y="-0.75" x="-1" width="93.6292724609375" height="1.5" fill="#2ca02c"></rect><circle class="markmap-node-circle" cx="91.6292724609375" stroke="#2ca02c" r="4.5" style="display: none;"></circle><text class="markmap-node-text" x="10" dy="-5" text-anchor="start" style="fill-opacity: 1;">실습 : Pandas 기초</text></g><g class="markmap-node" transform="translate(405.1371765136719,-140)"><rect class="markmap-node-rect" y="-0.75" x="-1" width="79.11248779296875" height="1.5" fill="#2ca02c"></rect><circle class="markmap-node-circle" cx="77.11248779296875" stroke="#2ca02c" r="4.5"></circle><text class="markmap-node-text" x="10" dy="-5" text-anchor="start" style="fill-opacity: 1;">6. Pandas 실습</text></g><g class="markmap-node" transform="translate(540.0084228515625,-160)"><rect class="markmap-node-rect" y="-0.75" x="-1" width="128.766357421875" height="1.5" fill="#2ca02c"></rect><circle class="markmap-node-circle" cx="126.766357421875" stroke="#2ca02c" r="4.5" style="display: none;"></circle><text class="markmap-node-text" x="10" dy="-5" text-anchor="start" style="fill-opacity: 1;">실습 : Numpy로 배열 곱하기</text></g><g class="markmap-node" transform="translate(405.1371765136719,-160)"><rect class="markmap-node-rect" y="-0.75" x="-1" width="76.87127685546875" height="1.5" fill="#2ca02c"></rect><circle class="markmap-node-circle" cx="74.87127685546875" stroke="#2ca02c" r="4.5"></circle><text class="markmap-node-text" x="10" dy="-5" text-anchor="start" style="fill-opacity: 1;">5. Numpy 실습</text></g><g class="markmap-node" transform="translate(405.1371765136719,-180)"><rect class="markmap-node-rect" y="-0.75" x="-1" width="173.95623779296875" height="1.5" fill="#2ca02c"></rect><circle class="markmap-node-circle" cx="171.95623779296875" stroke="#2ca02c" r="4.5" style="display: none;"></circle><text class="markmap-node-text" x="10" dy="-5" text-anchor="start" style="fill-opacity: 1;">4. Numpy, Pandas, Scikit-Learn 이해</text></g><g class="markmap-node" transform="translate(619.5789184570312,-200)"><rect class="markmap-node-rect" y="-0.75" x="-1" width="145.19955444335938" height="1.5" fill="#2ca02c"></rect><circle class="markmap-node-circle" cx="143.19955444335938" stroke="#2ca02c" r="4.5" style="display: none;"></circle><text class="markmap-node-text" x="10" dy="-5" text-anchor="start" style="fill-opacity: 1;">실습 : sin(30˚)를 구하고 싶다면?</text></g><g class="markmap-node" transform="translate(405.1371765136719,-200)"><rect class="markmap-node-rect" y="-0.75" x="-1" width="156.4417724609375" height="1.5" fill="#2ca02c"></rect><circle class="markmap-node-circle" cx="154.4417724609375" stroke="#2ca02c" r="4.5"></circle><text class="markmap-node-text" x="10" dy="-5" text-anchor="start" style="fill-opacity: 1;">3. Python Introspection 기법 실습</text></g><g class="markmap-node" transform="translate(590.4898681640625,-220)"><rect class="markmap-node-rect" y="-0.75" x="-1" width="89.1810302734375" height="1.5" fill="#2ca02c"></rect><circle class="markmap-node-circle" cx="87.1810302734375" stroke="#2ca02c" r="4.5" style="display: none;"></circle><text class="markmap-node-text" x="10" dy="-5" text-anchor="start" style="fill-opacity: 1;">실습 : CoLab 사용</text></g><g class="markmap-node" transform="translate(405.1371765136719,-220)"><rect class="markmap-node-rect" y="-0.75" x="-1" width="127.35269165039062" height="1.5" fill="#2ca02c"></rect><circle class="markmap-node-circle" cx="125.35269165039062" stroke="#2ca02c" r="4.5"></circle><text class="markmap-node-text" x="10" dy="-5" text-anchor="start" style="fill-opacity: 1;">2. CoLab(혹은 자사앱) 접근</text></g><g class="markmap-node" transform="translate(405.1371765136719,-235)"><rect class="markmap-node-rect" y="-0.75" x="-1" width="100.70193481445312" height="1.5" fill="#2ca02c"></rect><circle class="markmap-node-circle" cx="98.70193481445312" stroke="#2ca02c" r="4.5" style="display: none;"></circle><text class="markmap-node-text" x="10" dy="-5" text-anchor="start" style="fill-opacity: 1;">1. 파이썬 Fast Track</text></g><g class="markmap-node" transform="translate(143.978271484375,-177.5)"><rect class="markmap-node-rect" y="-1" x="-1" width="203.15890502929688" height="2" fill="#2ca02c"></rect><circle class="markmap-node-circle" cx="201.15890502929688" stroke="#2ca02c" r="4.5"></circle><text class="markmap-node-text" x="10" dy="-5" text-anchor="start" style="fill-opacity: 1;">1.파이썬 Introspection과 분석 라이브러리 실습</text></g><g class="markmap-node" transform="translate(0,0)"><rect class="markmap-node-rect" y="-3" x="-1" width="85.978271484375" height="6" fill="#98df8a"></rect><circle class="markmap-node-circle" cx="83.978271484375" stroke="#98df8a" r="4.5"></circle><text class="markmap-node-text" x="10" dy="-5" text-anchor="start" style="fill-opacity: 1;">인공지능 핵심과목</text></g></g>
</svg>